<svg width="80" height="81" viewBox="0 0 80 81" fill="none" xmlns="http://www.w3.org/2000/svg">
<path d="M68.15 68.1775H56.3175V49.61C56.3175 45.1825 56.225 39.4925 50.13 39.4925C43.96 39.4925 43.02 44.295 43.02 49.2825V68.175H31.1725V29.9975H42.5525V35.205H42.705C44.295 32.1975 48.1625 29.035 53.9325 29.035C65.935 29.035 68.1625 36.9375 68.1625 47.2125V68.175L68.15 68.1775ZM17.7875 24.78C13.97 24.78 10.91 21.6925 10.91 17.89C10.91 14.1 13.9825 11.0175 17.7875 11.0175C21.5925 11.0175 24.675 14.1 24.675 17.89C24.675 21.6925 21.5925 24.78 17.7875 24.78ZM23.7225 68.1775H11.85V30H23.7225V68.1775ZM74.09 0H5.9C2.6425 0 0 2.5775 0 5.7675V74.235C0 77.425 2.6425 80.0025 5.9 80.0025H74.0775C77.33 80.0025 80 77.425 80 74.235V5.7675C80 2.5775 77.33 0 74.0775 0L74.09 0Z" fill="#F3A774"/>
</svg>
