<svg width="80" height="81" viewBox="0 0 80 81" fill="none" xmlns="http://www.w3.org/2000/svg">
<path d="M40 0.00146484C29.1261 0.00146484 27.771 0.0539714 23.5154 0.233994C19.2424 0.44402 16.352 1.1066 13.8017 2.09673C11.1714 3.12686 8.93112 4.49453 6.71834 6.7198C4.49056 8.93258 3.11039 11.1729 2.09526 13.8032C1.10514 16.3535 0.442555 19.2439 0.232529 23.5169C0.040005 27.7749 0 29.1276 0 40.0015C0 50.8753 0.0525066 52.2305 0.232529 56.486C0.442555 60.7466 1.10514 63.6494 2.09526 66.1997C3.12539 68.8301 4.49306 71.0704 6.71834 73.2831C8.93112 75.5109 11.1714 76.8911 13.8017 77.9062C16.352 78.8838 19.2549 79.5589 23.5154 79.7689C27.7735 79.9615 29.1261 80.0015 40 80.0015C50.8739 80.0015 52.229 79.949 56.4846 79.7689C60.7451 79.5589 63.6479 78.8813 66.1983 77.9062C68.8286 76.8761 71.0689 75.5084 73.2817 73.2831C75.5094 71.0704 76.8896 68.8426 77.9047 66.1997C78.8824 63.6494 79.5574 60.7466 79.7675 56.486C79.96 52.228 80 50.8753 80 40.0015C80 29.1276 79.9475 27.7724 79.7675 23.5169C79.5574 19.2564 78.8799 16.3385 77.9047 13.8032C76.8746 11.1729 75.5069 8.93258 73.2817 6.7198C71.0689 4.49203 68.8411 3.11185 66.1983 2.09673C63.6479 1.1066 60.7451 0.44402 56.4846 0.233994C52.2265 0.0414698 50.8739 0.00146484 40 0.00146484ZM40 7.20237C50.6788 7.20237 51.954 7.25487 56.1745 7.43489C60.0675 7.61742 62.1878 8.2675 63.5954 8.81757C65.4732 9.54516 66.7858 10.4053 68.206 11.8104C69.5987 13.2031 70.4588 14.5308 71.1864 16.4085C71.7365 17.8162 72.3865 19.9365 72.5691 23.8294C72.7491 28.05 72.8016 29.3276 72.8016 40.004C72.8016 50.6803 72.7491 51.958 72.5541 56.1785C72.344 60.0715 71.694 62.1917 71.1464 63.5994C70.3888 65.4771 69.5437 66.7898 68.1485 68.21C66.7408 69.6027 65.4007 70.4628 63.5379 71.1904C62.1478 71.7404 59.9975 72.3905 56.0895 72.573C51.8465 72.7531 50.5963 72.8056 39.89 72.8056C29.1836 72.8056 27.936 72.7531 23.688 72.558C19.795 72.348 17.6472 71.6979 16.2395 71.1504C14.3393 70.3928 13.0366 69.5477 11.6415 68.1525C10.2338 66.7448 9.33867 65.4046 8.64858 63.5419C8.08851 62.1517 7.44843 60.0015 7.2409 56.0935C7.09839 51.9005 7.03088 50.6003 7.03088 39.944C7.03088 29.2926 7.09839 27.99 7.2409 23.7444C7.44843 19.8364 8.08851 17.6912 8.64858 16.296C9.33867 14.3933 10.2363 13.0931 11.6415 11.6854C13.0341 10.2928 14.3393 9.39264 16.2395 8.68755C17.6472 8.13998 19.7425 7.4899 23.6505 7.29488C27.8935 7.14236 29.1436 7.08735 39.835 7.08735L40 7.20237ZM40 19.4714C28.6461 19.4714 19.4649 28.665 19.4649 40.0065C19.4649 51.3604 28.6586 60.5415 40 60.5415C51.3539 60.5415 60.5351 51.3479 60.5351 40.0065C60.5351 28.6525 51.3414 19.4714 40 19.4714ZM40 53.3406C32.6291 53.3406 26.6658 47.3774 26.6658 40.0065C26.6658 32.6355 32.6291 26.6723 40 26.6723C47.3709 26.6723 53.3342 32.6355 53.3342 40.0065C53.3342 47.3774 47.3709 53.3406 40 53.3406ZM66.1633 18.6513C66.1633 21.3091 64.0005 23.4544 61.3552 23.4544C58.6973 23.4544 56.5521 21.3066 56.5521 18.6513C56.5521 16.0085 58.7123 13.8582 61.3552 13.8582C63.998 13.8582 66.1633 16.0085 66.1633 18.6513Z" fill="#F3A774"/>
</svg>
